<?xml version="1.0" standalone="no"?>
<!DOCTYPE svg PUBLIC "-//W3C//DTD SVG 20010904//EN"
 "http://www.w3.org/TR/2001/REC-SVG-20010904/DTD/svg10.dtd">
<svg version="1.0" xmlns="http://www.w3.org/2000/svg"
 width="386.000000pt" height="386.000000pt" viewBox="0 0 386.000000 386.000000"
 preserveAspectRatio="xMidYMid meet">

<g transform="translate(0.000000,386.000000) scale(0.100000,-0.100000)"
fill="#000000" stroke="none">
<path d="M2575 2864 c12 -43 14 -230 4 -303 -5 -35 -6 -67 -3 -70 3 -3 21 11
40 33 34 39 60 104 68 167 6 55 -49 165 -96 190 -19 10 -20 9 -13 -17z"/>
<path d="M1428 2673 c7 -3 16 -2 19 1 4 3 -2 6 -13 5 -11 0 -14 -3 -6 -6z"/>
<path d="M2143 2574 c3 -3 -5 -18 -19 -32 -13 -15 -24 -32 -24 -38 0 -11 -32
-15 -40 -5 -13 18 -70 51 -70 42 0 -6 3 -11 8 -11 6 0 38 -24 126 -97 24 -20
206 -33 206 -15 0 6 -28 34 -62 62 -35 28 -75 62 -91 76 -23 20 -52 36 -34 18z"/>
<path d="M2789 2527 c-35 -88 -106 -148 -226 -189 -86 -29 -90 -30 -231 -23
-80 3 -161 12 -183 20 -21 8 -42 14 -44 14 -7 0 -55 8 -167 27 -139 23 -387
16 -478 -15 -101 -34 -118 -42 -124 -56 -4 -11 13 -86 39 -172 9 -30 16 -29
51 8 36 39 88 65 162 84 148 38 333 23 632 -51 103 -26 288 -23 374 5 177 58
247 124 247 236 0 56 -16 131 -30 139 -5 3 -14 -9 -22 -27z"/>
<path d="M2370 2496 c0 -2 8 -10 18 -17 15 -13 16 -12 3 4 -13 16 -21 21 -21
13z"/>
<path d="M1970 2480 c0 -6 -24 -10 -57 -10 -66 0 -67 -6 -3 -13 25 -3 62 -8
83 -12 20 -4 37 -5 37 -3 0 2 -13 14 -30 26 -16 13 -30 18 -30 12z"/>
<path d="M1700 2475 c0 -7 30 -13 34 -7 3 4 -4 9 -15 9 -10 1 -19 0 -19 -2z"/>
<path d="M1390 2420 c-8 -5 -10 -10 -5 -10 6 0 17 5 25 10 8 5 11 10 5 10 -5
0 -17 -5 -25 -10z"/>
<path d="M1350 2399 c0 -5 5 -7 10 -4 6 3 10 8 10 11 0 2 -4 4 -10 4 -5 0 -10
-5 -10 -11z"/>
<path d="M1740 2131 c-85 -10 -162 -44 -205 -92 -40 -45 -44 -77 -12 -106 38
-34 46 -35 77 -9 50 42 136 69 231 72 119 4 196 -20 313 -99 121 -82 216 -106
321 -82 88 21 160 62 228 129 48 48 128 178 116 190 -2 3 -32 -9 -65 -25 -35
-18 -98 -37 -152 -46 -78 -14 -105 -15 -194 -4 -57 7 -132 19 -168 27 -102 24
-133 31 -190 41 -49 9 -236 11 -300 4z"/>
<path d="M1727 1926 c-114 -41 -126 -65 -46 -91 52 -18 176 -22 249 -10 46 7
140 45 140 56 0 5 -24 21 -52 36 -78 39 -197 43 -291 9z"/>
<path d="M1304 1594 c-3 -19 -4 -49 0 -65 3 -17 6 -116 6 -220 l1 -189 61 0
60 0 -3 142 c-3 101 -1 142 8 145 11 4 69 -79 141 -203 22 -39 48 -77 57 -84
19 -16 60 -22 99 -14 l28 6 -3 232 c-2 127 -5 241 -7 254 -4 20 -10 22 -59 22
l-54 0 2 -112 c0 -62 5 -120 9 -129 5 -8 5 -21 1 -28 -12 -18 -45 -9 -49 13
-2 11 -34 65 -70 120 -36 56 -70 110 -77 120 -9 16 -25 20 -78 22 l-66 3 -7
-35z"/>
<path d="M1854 1596 c-3 -8 -4 -27 -2 -43 l3 -28 90 -5 90 -5 6 -30 c4 -16 7
-104 8 -196 1 -113 5 -169 13 -177 15 -15 104 -16 113 -1 4 6 6 45 5 87 -1 42
-3 129 -4 192 l-1 115 67 3 c73 3 78 9 69 75 l-3 27 -224 0 c-185 0 -226 -3
-230 -14z"/>
<path d="M2364 1579 c3 -17 17 -58 31 -92 29 -69 102 -265 116 -312 20 -69 28
-75 90 -75 l57 0 26 68 c14 37 26 75 26 84 0 8 29 89 65 179 36 90 65 167 65
171 0 5 -99 5 -142 -1 -5 -1 -8 -10 -8 -20 0 -11 -8 -43 -19 -73 -31 -89 -50
-152 -53 -178 -5 -38 -45 -40 -53 -3 -15 67 -80 257 -93 269 -8 8 -34 14 -64
14 l-50 0 6 -31z"/>
</g>
</svg>
